<svg width="25" height="25" viewBox="0 0 25 25" fill="none" xmlns="http://www.w3.org/2000/svg">
<path d="M20.705 13.0761C20.325 13.0761 20.005 12.7861 19.955 12.4061C19.8345 11.2859 19.4737 10.2048 18.8973 9.2366C18.3209 8.26845 17.5424 7.43603 16.615 6.79613C16.4529 6.68266 16.342 6.50985 16.3064 6.31516C16.2708 6.12047 16.3135 5.91961 16.425 5.75613C16.665 5.41613 17.135 5.33613 17.465 5.56613C18.5677 6.32912 19.493 7.32071 20.1781 8.47341C20.8632 9.62612 21.2919 10.9129 21.435 12.2461C21.475 12.6561 21.185 13.0261 20.765 13.0761H20.705ZM3.57501 13.1261H3.49501C3.29736 13.102 3.11687 13.0019 2.9918 12.8469C2.86673 12.692 2.80691 12.4944 2.82501 12.2961C3.09501 9.60613 4.52501 7.17613 6.73501 5.60613C6.81577 5.54901 6.907 5.50835 7.00347 5.48648C7.09995 5.46461 7.19979 5.46196 7.29729 5.47867C7.39479 5.49539 7.48805 5.53114 7.57173 5.5839C7.65541 5.63665 7.72788 5.70537 7.78501 5.78613C7.84213 5.8669 7.88279 5.95812 7.90466 6.0546C7.92653 6.15107 7.92919 6.25091 7.91247 6.34841C7.89576 6.44592 7.86 6.53917 7.80725 6.62285C7.75449 6.70654 7.68577 6.77901 7.60501 6.83613C6.68626 7.48277 5.91708 8.31916 5.34949 9.28873C4.78189 10.2583 4.42911 11.3385 4.31501 12.4561C4.29754 12.64 4.21193 12.8107 4.075 12.9347C3.93807 13.0587 3.75972 13.127 3.57501 13.1261ZM12.145 22.6161C10.665 22.6161 9.25501 22.2761 7.93501 21.6161C7.8469 21.5716 7.76845 21.5101 7.70415 21.4352C7.63985 21.3603 7.59096 21.2735 7.56031 21.1797C7.52965 21.0858 7.51781 20.9869 7.52549 20.8884C7.53316 20.79 7.56018 20.6941 7.60501 20.6061C7.64953 20.518 7.711 20.4396 7.7859 20.3753C7.8608 20.311 7.94766 20.2621 8.04149 20.2314C8.13533 20.2008 8.23429 20.1889 8.33271 20.1966C8.43112 20.2043 8.52706 20.2313 8.61501 20.2761C9.69099 20.8135 10.8754 21.0982 12.0781 21.1086C13.2807 21.119 14.4699 20.8548 15.555 20.3361C15.925 20.1561 16.375 20.3161 16.555 20.6861C16.735 21.0561 16.575 21.5061 16.205 21.6861C14.925 22.3061 13.565 22.6161 12.145 22.6161ZM12.145 8.44513C11.6765 8.45315 11.2111 8.36782 10.7759 8.19411C10.3408 8.0204 9.94452 7.76178 9.61032 7.43335C9.27613 7.10492 9.01066 6.71324 8.82941 6.28115C8.64816 5.84907 8.55474 5.38522 8.55461 4.91665C8.55447 4.44809 8.64763 3.98418 8.82864 3.55199C9.00965 3.1198 9.27489 2.72797 9.6089 2.39935C9.94291 2.07073 10.339 1.81189 10.7741 1.63794C11.2092 1.46398 11.6745 1.37838 12.143 1.38613C13.0688 1.40159 13.9515 1.78017 14.6008 2.44029C15.25 3.10041 15.614 3.98922 15.6141 4.91514C15.6142 5.84107 15.2506 6.72997 14.6015 7.39028C13.9524 8.05059 13.0698 8.42942 12.144 8.44513H12.145ZM12.145 2.89513C11.025 2.89513 10.115 3.80513 10.115 4.92513C10.115 6.04513 11.025 6.95513 12.145 6.95513C13.265 6.95513 14.175 6.04513 14.175 4.92513C14.175 3.80513 13.255 2.89513 12.145 2.89513ZM4.91501 20.6761C4.45144 20.6761 3.99242 20.5848 3.56414 20.4074C3.13586 20.23 2.74671 19.97 2.41892 19.6422C2.09113 19.3144 1.83111 18.9253 1.65372 18.497C1.47632 18.0687 1.38501 17.6097 1.38501 17.1461C1.38501 16.6826 1.47632 16.2235 1.65372 15.7953C1.83111 15.367 2.09113 14.9778 2.41892 14.65C2.74671 14.3223 3.13586 14.0622 3.56414 13.8848C3.99242 13.7074 4.45144 13.6161 4.91501 13.6161C5.85122 13.6161 6.74909 13.988 7.4111 14.65C8.0731 15.3121 8.44501 16.2099 8.44501 17.1461C8.44501 18.0823 8.0731 18.9802 7.4111 19.6422C6.74909 20.3042 5.85122 20.6761 4.91501 20.6761ZM4.91501 15.1161C3.79501 15.1161 2.88501 16.0261 2.88501 17.1461C2.88501 18.2661 3.79501 19.1761 4.91501 19.1761C6.03501 19.1761 6.94501 18.2661 6.94501 17.1461C6.94501 16.0261 6.03501 15.1161 4.91501 15.1161ZM19.255 20.6761C18.5568 20.6761 17.8744 20.4691 17.2938 20.0812C16.7133 19.6933 16.2609 19.142 15.9937 18.497C15.7265 17.852 15.6566 17.1422 15.7928 16.4575C15.929 15.7727 16.2652 15.1437 16.7589 14.65C17.2526 14.1564 17.8816 13.8202 18.5663 13.684C19.2511 13.5478 19.9609 13.6177 20.6059 13.8848C21.2509 14.152 21.8022 14.6045 22.1901 15.185C22.578 15.7655 22.785 16.448 22.785 17.1461C22.775 19.0861 21.195 20.6761 19.255 20.6761ZM19.255 15.1161C18.135 15.1161 17.225 16.0261 17.225 17.1461C17.225 18.2661 18.135 19.1761 19.255 19.1761C20.375 19.1761 21.285 18.2661 21.285 17.1461C21.2829 16.6084 21.0684 16.0933 20.6881 15.713C20.3079 15.3328 19.7928 15.1182 19.255 15.1161Z" fill="#D9D9E3"/>
</svg>
